<?xml version="1.0" encoding="utf-8"?>
<!-- Generator: Adobe Illustrator 25.4.1, SVG Export Plug-In . SVG Version: 6.00 Build 0)  -->
<svg version="1.1" id="Layer_1" xmlns="http://www.w3.org/2000/svg" xmlns:xlink="http://www.w3.org/1999/xlink" x="0px" y="0px"
	 viewBox="0 0 440.9 192.5" style="enable-background:new 0 0 440.9 192.5;" xml:space="preserve">
<style type="text/css">
	.st0{fill:#FFFFFF;}
</style>
<g>
	<path class="st0" d="M132.5,106.8c-5.6-7.4-13.2-12.3-23-14.7c8.5-3.3,15.1-8.5,19.9-15.6c4.8-7.1,7.2-15.2,7.2-24.5
		c0-17-6-29.9-17.8-38.8C106.8,4.4,89.4,0,66.4,0H0v189.6h73.7c21.5-0.2,38.1-4.9,49.7-14.3c4.7-3.8,8.4-8.3,11.2-13.5
		c4.2-7.7,6.2-17,6.2-27.9C140.9,123.2,138.1,114.2,132.5,106.8z M39,31.6h27.4c10.8,0,18.6,1.9,23.6,5.7c5,3.8,7.5,10,7.5,18.5
		c0,15.4-9.9,23.2-29.6,23.6H39V31.6z M39,158.2V107h35.8c18,0.3,27,9.1,27,26.4c0,7.7-2.6,13.8-7.8,18.2
		c-5.2,4.4-12.3,6.6-21.5,6.6H39z"/>
	<path class="st0" d="M190.5,132c4.6-0.6,7.9-1.3,9.9-2.2c3.6-1.5,5.3-3.8,5.3-7c0-3.9-1.4-6.6-4.1-8c-2.7-1.5-6.7-2.2-12-2.2
		c-5.9,0-10.1,1.4-12.6,4.3c-1.8,2.1-2.9,5-3.5,8.7h-23.9c0.5-8.3,2.8-15.1,7-20.4c6.6-8.3,17.8-12.5,33.8-12.5
		c10.4,0,19.6,2.1,27.7,6.2c8.1,4.1,12.1,11.9,12.1,23.3v43.4c0,3,0.1,6.7,0.2,10.9c0.2,3.2,0.7,5.4,1.5,6.6c0.8,1.2,2,2.1,3.6,2.9
		v3.6h-26.9c-0.8-1.9-1.3-3.7-1.6-5.4c-0.3-1.7-0.5-3.6-0.7-5.7c-3.4,3.7-7.4,6.9-11.9,9.5c-5.4,3.1-11.4,4.6-18.2,4.6
		c-8.6,0-15.7-2.4-21.3-7.3c-5.6-4.9-8.4-11.8-8.4-20.8c0-11.6,4.5-20.1,13.6-25.3c5-2.8,12.2-4.9,21.9-6.1L190.5,132z M205.7,143.6
		c-1.6,1-3.2,1.8-4.8,2.4c-1.6,0.6-3.8,1.2-6.6,1.7l-5.6,1c-5.3,0.9-9.1,2.1-11.4,3.4c-3.9,2.3-5.8,5.8-5.8,10.5
		c0,4.2,1.2,7.3,3.6,9.2c2.4,1.9,5.3,2.8,8.7,2.8c5.4,0,10.4-1.6,14.9-4.7c4.6-3.1,6.9-8.8,7.1-17.1V143.6z"/>
	<path class="st0" d="M296.7,92.8c0.3,0,1,0.1,2.1,0.1v25.3c-1.6-0.2-3-0.3-4.2-0.3c-1.2-0.1-2.2-0.1-3-0.1c-10,0-16.6,3.2-20.1,9.7
		c-1.9,3.6-2.9,9.3-2.9,16.8v45.2h-24.9V95h23.6v16.5c3.8-6.3,7.1-10.6,10-12.9c4.6-3.9,10.6-5.8,18.1-5.8
		C296,92.7,296.3,92.7,296.7,92.8z"/>
	<path class="st0" d="M385.4,140.5c0-14.9-3.7-26.4-11.1-34.5C367,98,356.9,93.9,344,93.9c-8.6,0-16.2,2-22.9,6
		c-6.7,4-11.9,9.8-15.5,17.2c-3.7,7.4-5.5,15.9-5.5,25.3v2.4c0,14.1,4.3,25.3,13,33.8c8.1,8,18.5,12.2,31.2,12.6v-20.5
		c-2.1-0.3-4-0.8-5.8-1.6c-2-0.9-3.9-2.1-5.6-3.6c-4.1-3.7-6.5-8.6-7.3-14.8h59.8V140.5z M360.8,133.7h-34.9
		c0.9-6.3,2.9-11.1,6-14.5c3.1-3.4,7.1-5.1,12.1-5.1c5.3,0,9.4,1.5,12.3,4.6c2.9,3,4.4,7.4,4.5,12.9V133.7z"/>
	<path class="st0" d="M391.3,128.2v19.3h49.6v-19.3H391.3z"/>
	<g>
		<path class="st0" d="M399.3,182.5c-1.1,0.9-2.4,1.4-4.1,1.4c-2.2,0-3.8-0.8-4.9-2.3c-1.1-1.5-1.6-4.1-1.6-7.6v-0.9
			c0-3.5,0.5-6,1.6-7.5c1.1-1.6,2.7-2.3,4.8-2.3c1.7,0,3.1,0.6,4.2,1.7c1,1.1,1.6,2.6,1.6,4.3h8.6c0-4-1.4-7.3-3.9-9.7
			c-2.6-2.4-6-3.6-10.3-3.6c-4.9,0-8.7,1.6-11.5,4.7c-2.8,3.1-4.2,7.3-4.2,12.6v0.6c0,5.5,1.4,9.8,4.2,12.9
			c2.8,3.1,6.7,4.7,11.6,4.7c2.6,0,5-0.5,7.2-1.6c2.2-1.1,3.9-2.6,5.1-4.5c1.2-1.9,1.9-4.1,1.9-6.4H401
			C400.9,180.4,400.4,181.6,399.3,182.5z"/>
		<path class="st0" d="M439.6,182.7v-14.8c0-3.8-1.2-6.8-3.7-8.9c-2.5-2.1-5.8-3.2-10-3.2c-2.8,0-5.3,0.5-7.5,1.4
			c-2.2,1-4,2.3-5.2,4c-1.2,1.7-1.8,3.5-1.8,5.5h9.1c0-1.3,0.4-2.3,1.3-3c0.9-0.7,2.1-1.1,3.6-1.1c1.8,0,3,0.5,3.8,1.4
			c0.8,0.9,1.2,2.2,1.2,3.8v2h-4.2c-5.1,0-9,1-11.6,2.9c-2.7,1.9-4,4.7-4,8.3c0,2.9,1.1,5.4,3.3,7.3c2.2,1.9,5,2.9,8.3,2.9
			c3.5,0,6.4-1.2,8.6-3.7c0.2,1.2,0.5,2.2,0.9,3.1h9.2v-0.5C440.1,188.4,439.6,186,439.6,182.7z M430.4,181c-0.6,1-1.4,1.8-2.5,2.4
			c-1.1,0.6-2.4,0.9-3.7,0.9c-1.4,0-2.5-0.4-3.3-1.1c-0.8-0.7-1.2-1.7-1.2-2.8l0-0.5c0.3-3.2,2.7-4.7,7.3-4.7h3.4V181z"/>
		<path class="st0" d="M378.5,175.9v-3.9c0-2.2-0.2-4.2-0.6-6c-0.2-0.8-0.4-1.5-0.7-2.2c-0.7-1.8-1.6-3.4-2.9-4.8
			c-2.8-3.1-6.6-4.6-11.5-4.6c-3.2,0-6.1,0.8-8.7,2.3c-2.5,1.5-4.5,3.7-5.9,6.5c-1.3,2.6-1.9,5.4-2.1,8.6c0,0.3,0,0.6,0,1v0.9
			c0,5.3,1.6,9.6,4.9,12.8c3.3,3.2,7.5,4.8,12.7,4.8c3,0,5.7-0.6,8.1-1.7c0.2-0.1,0.4-0.2,0.5-0.3c2.2-1.1,3.9-2.6,5.2-4.4l-4.7-5.2
			c-1.1,1.4-2.4,2.4-3.9,3.1c-1.4,0.6-2.9,0.9-4.7,0.9c-2.4,0-4.3-0.7-5.9-2.1c-1.5-1.4-2.5-3.3-2.8-5.6H378.5z M358.2,164
			c1.2-1.3,2.7-1.9,4.6-1.9c2,0,3.6,0.6,4.7,1.7c1.1,1.2,1.7,2.8,1.7,4.9v0.8H356C356.3,167.1,357,165.3,358.2,164z"/>
	</g>
</g>
</svg>
